<mxfile host="65bd71144e">
    <diagram id="WuZfNYFaEt327s2z755-" name="Page-1">
        <mxGraphModel dx="117" dy="87" grid="1" gridSize="10" guides="1" tooltips="1" connect="1" arrows="1" fold="1" page="1" pageScale="1" pageWidth="850" pageHeight="1100" math="0" shadow="0">
            <root>
                <mxCell id="0"/>
                <mxCell id="1" parent="0"/>
                <mxCell id="5" value="" style="group" parent="1" vertex="1" connectable="0">
                    <mxGeometry x="180" y="380" width="120" height="80" as="geometry"/>
                </mxCell>
                <mxCell id="70" value="" style="rhombus;whiteSpace=wrap;html=1;" parent="5" vertex="1">
                    <mxGeometry x="-10" y="-40" width="115" height="115" as="geometry"/>
                </mxCell>
                <mxCell id="4" value="" style="ellipse;whiteSpace=wrap;html=1;" parent="5" vertex="1">
                    <mxGeometry width="45" height="30" as="geometry"/>
                </mxCell>
                <mxCell id="3" value="Actor" style="text;html=1;strokeColor=none;fillColor=none;align=center;verticalAlign=middle;whiteSpace=wrap;rounded=0;movable=0;resizable=0;rotatable=0;deletable=0;editable=0;connectable=0;" parent="5" vertex="1">
                    <mxGeometry x="11.25" y="9.375" width="22.5" height="11.25" as="geometry"/>
                </mxCell>
                <mxCell id="89" value="Device 3" style="text;html=1;strokeColor=none;fillColor=none;align=center;verticalAlign=middle;whiteSpace=wrap;rounded=0;" parent="5" vertex="1">
                    <mxGeometry x="18" y="-23" width="60" height="30" as="geometry"/>
                </mxCell>
                <mxCell id="65" value="" style="ellipse;shape=cloud;whiteSpace=wrap;html=1;" parent="1" vertex="1">
                    <mxGeometry x="260" y="170" width="301.5" height="201" as="geometry"/>
                </mxCell>
                <mxCell id="6" value="" style="group" parent="1" vertex="1" connectable="0">
                    <mxGeometry x="240" y="380" width="45" height="30" as="geometry"/>
                </mxCell>
                <mxCell id="7" value="" style="ellipse;whiteSpace=wrap;html=1;" parent="6" vertex="1">
                    <mxGeometry width="45" height="30" as="geometry"/>
                </mxCell>
                <mxCell id="8" value="Actor" style="text;html=1;strokeColor=none;fillColor=none;align=center;verticalAlign=middle;whiteSpace=wrap;rounded=0;movable=0;resizable=0;rotatable=0;deletable=0;editable=0;connectable=0;" parent="6" vertex="1">
                    <mxGeometry x="11.25" y="9.375" width="22.5" height="11.25" as="geometry"/>
                </mxCell>
                <mxCell id="10" style="edgeStyle=none;html=1;exitX=1;exitY=0.5;exitDx=0;exitDy=0;entryX=0;entryY=0.5;entryDx=0;entryDy=0;" parent="1" source="4" target="7" edge="1">
                    <mxGeometry relative="1" as="geometry"/>
                </mxCell>
                <mxCell id="12" value="" style="group" parent="1" vertex="1" connectable="0">
                    <mxGeometry x="310" y="260" width="45" height="30" as="geometry"/>
                </mxCell>
                <mxCell id="13" value="" style="ellipse;whiteSpace=wrap;html=1;" parent="12" vertex="1">
                    <mxGeometry width="45" height="30" as="geometry"/>
                </mxCell>
                <mxCell id="14" value="Actor" style="text;html=1;strokeColor=none;fillColor=none;align=center;verticalAlign=middle;whiteSpace=wrap;rounded=0;movable=0;resizable=0;rotatable=0;deletable=0;editable=0;connectable=0;" parent="12" vertex="1">
                    <mxGeometry x="11.25" y="9.375" width="22.5" height="11.25" as="geometry"/>
                </mxCell>
                <mxCell id="15" value="" style="group" parent="1" vertex="1" connectable="0">
                    <mxGeometry x="370" y="190" width="45" height="30" as="geometry"/>
                </mxCell>
                <mxCell id="16" value="" style="ellipse;whiteSpace=wrap;html=1;fillColor=#0050ef;fontColor=#ffffff;strokeColor=#001DBC;" parent="15" vertex="1">
                    <mxGeometry width="45" height="30" as="geometry"/>
                </mxCell>
                <mxCell id="17" value="Actor" style="text;html=1;strokeColor=none;fillColor=none;align=center;verticalAlign=middle;whiteSpace=wrap;rounded=0;movable=0;resizable=0;rotatable=0;deletable=0;editable=0;connectable=0;" parent="15" vertex="1">
                    <mxGeometry x="11.25" y="9.375" width="22.5" height="11.25" as="geometry"/>
                </mxCell>
                <mxCell id="18" style="edgeStyle=none;html=1;entryX=0;entryY=0.5;entryDx=0;entryDy=0;" parent="1" source="13" target="16" edge="1">
                    <mxGeometry relative="1" as="geometry"/>
                </mxCell>
                <mxCell id="25" value="" style="group" parent="1" vertex="1" connectable="0">
                    <mxGeometry x="370.5" y="199" width="45" height="96.9" as="geometry"/>
                </mxCell>
                <mxCell id="26" value="" style="ellipse;whiteSpace=wrap;html=1;fillColor=#60a917;fontColor=#ffffff;strokeColor=#2D7600;" parent="25" vertex="1">
                    <mxGeometry width="45" height="30" as="geometry"/>
                </mxCell>
                <mxCell id="27" value="Actor" style="text;html=1;strokeColor=none;fillColor=none;align=center;verticalAlign=middle;whiteSpace=wrap;rounded=0;movable=0;resizable=0;rotatable=0;deletable=0;editable=0;connectable=0;" parent="25" vertex="1">
                    <mxGeometry x="11.25" y="9.375" width="22.5" height="11.25" as="geometry"/>
                </mxCell>
                <mxCell id="35" value="" style="group" parent="25" vertex="1" connectable="0">
                    <mxGeometry y="9.379999999999995" width="45" height="87.52000000000001" as="geometry"/>
                </mxCell>
                <mxCell id="36" value="" style="ellipse;whiteSpace=wrap;html=1;" parent="35" vertex="1">
                    <mxGeometry width="45" height="30" as="geometry"/>
                </mxCell>
                <mxCell id="37" value="Actor" style="text;html=1;strokeColor=none;fillColor=none;align=center;verticalAlign=middle;whiteSpace=wrap;rounded=0;movable=0;resizable=0;rotatable=0;deletable=0;editable=0;connectable=0;" parent="35" vertex="1">
                    <mxGeometry x="11.25" y="9.375" width="22.5" height="11.25" as="geometry"/>
                </mxCell>
                <mxCell id="38" value="" style="group" parent="35" vertex="1" connectable="0">
                    <mxGeometry y="9.379999999999999" width="45" height="78.14000000000001" as="geometry"/>
                </mxCell>
                <mxCell id="39" value="" style="ellipse;whiteSpace=wrap;html=1;" parent="38" vertex="1">
                    <mxGeometry width="45" height="30" as="geometry"/>
                </mxCell>
                <mxCell id="40" value="Actor" style="text;html=1;strokeColor=none;fillColor=none;align=center;verticalAlign=middle;whiteSpace=wrap;rounded=0;movable=0;resizable=0;rotatable=0;deletable=0;editable=0;connectable=0;" parent="38" vertex="1">
                    <mxGeometry x="11.25" y="9.375" width="22.5" height="11.25" as="geometry"/>
                </mxCell>
                <mxCell id="41" value="" style="group" parent="38" vertex="1" connectable="0">
                    <mxGeometry y="9.380000000000003" width="45" height="68.76000000000002" as="geometry"/>
                </mxCell>
                <mxCell id="42" value="" style="ellipse;whiteSpace=wrap;html=1;" parent="41" vertex="1">
                    <mxGeometry width="45" height="30" as="geometry"/>
                </mxCell>
                <mxCell id="43" value="Actor" style="text;html=1;strokeColor=none;fillColor=none;align=center;verticalAlign=middle;whiteSpace=wrap;rounded=0;movable=0;resizable=0;rotatable=0;deletable=0;editable=0;connectable=0;" parent="41" vertex="1">
                    <mxGeometry x="11.25" y="9.375" width="22.5" height="11.25" as="geometry"/>
                </mxCell>
                <mxCell id="44" value="" style="group" parent="41" vertex="1" connectable="0">
                    <mxGeometry y="9.380000000000006" width="45" height="30" as="geometry"/>
                </mxCell>
                <mxCell id="45" value="" style="ellipse;whiteSpace=wrap;html=1;" parent="44" vertex="1">
                    <mxGeometry width="45" height="30" as="geometry"/>
                </mxCell>
                <mxCell id="46" value="Actor" style="text;html=1;strokeColor=none;fillColor=none;align=center;verticalAlign=middle;whiteSpace=wrap;rounded=0;movable=0;resizable=0;rotatable=0;deletable=0;editable=0;connectable=0;" parent="44" vertex="1">
                    <mxGeometry x="11.25" y="9.375" width="22.5" height="11.25" as="geometry"/>
                </mxCell>
                <mxCell id="47" value="" style="group" parent="41" vertex="1" connectable="0">
                    <mxGeometry y="19.380000000000006" width="45" height="30" as="geometry"/>
                </mxCell>
                <mxCell id="48" value="" style="ellipse;whiteSpace=wrap;html=1;" parent="47" vertex="1">
                    <mxGeometry width="45" height="30" as="geometry"/>
                </mxCell>
                <mxCell id="49" value="Actor" style="text;html=1;strokeColor=none;fillColor=none;align=center;verticalAlign=middle;whiteSpace=wrap;rounded=0;movable=0;resizable=0;rotatable=0;deletable=0;editable=0;connectable=0;" parent="47" vertex="1">
                    <mxGeometry x="11.25" y="9.375" width="22.5" height="11.25" as="geometry"/>
                </mxCell>
                <mxCell id="50" value="" style="group" parent="41" vertex="1" connectable="0">
                    <mxGeometry y="29.380000000000006" width="45" height="39.38000000000002" as="geometry"/>
                </mxCell>
                <mxCell id="51" value="" style="ellipse;whiteSpace=wrap;html=1;" parent="50" vertex="1">
                    <mxGeometry width="45" height="30" as="geometry"/>
                </mxCell>
                <mxCell id="52" value="Actor" style="text;html=1;strokeColor=none;fillColor=none;align=center;verticalAlign=middle;whiteSpace=wrap;rounded=0;movable=0;resizable=0;rotatable=0;deletable=0;editable=0;connectable=0;" parent="50" vertex="1">
                    <mxGeometry x="11.25" y="9.375" width="22.5" height="11.25" as="geometry"/>
                </mxCell>
                <mxCell id="53" value="" style="group" parent="50" vertex="1" connectable="0">
                    <mxGeometry y="9.380000000000017" width="45" height="30" as="geometry"/>
                </mxCell>
                <mxCell id="54" value="" style="ellipse;whiteSpace=wrap;html=1;" parent="53" vertex="1">
                    <mxGeometry width="45" height="30" as="geometry"/>
                </mxCell>
                <mxCell id="55" value="Actor" style="text;html=1;strokeColor=none;fillColor=none;align=center;verticalAlign=middle;whiteSpace=wrap;rounded=0;movable=0;resizable=0;rotatable=0;deletable=0;editable=0;connectable=0;" parent="53" vertex="1">
                    <mxGeometry x="11.25" y="9.375" width="22.5" height="11.25" as="geometry"/>
                </mxCell>
                <mxCell id="60" value="" style="group" parent="1" vertex="1" connectable="0">
                    <mxGeometry x="373.75" y="310.5" width="41.75" height="30" as="geometry"/>
                </mxCell>
                <mxCell id="61" value="" style="ellipse;whiteSpace=wrap;html=1;" parent="60" vertex="1">
                    <mxGeometry width="41.75" height="30" as="geometry"/>
                </mxCell>
                <mxCell id="62" value="Actor" style="text;html=1;strokeColor=none;fillColor=none;align=center;verticalAlign=middle;whiteSpace=wrap;rounded=0;movable=0;resizable=0;rotatable=0;deletable=0;editable=0;connectable=0;" parent="60" vertex="1">
                    <mxGeometry x="11.25" y="9.375" width="22.5" height="11.25" as="geometry"/>
                </mxCell>
                <mxCell id="64" value="" style="shape=cylinder3;whiteSpace=wrap;html=1;boundedLbl=1;backgroundOutline=1;size=15;" parent="1" vertex="1">
                    <mxGeometry x="460" y="230.5" width="60" height="80" as="geometry"/>
                </mxCell>
                <mxCell id="66" style="edgeStyle=none;html=1;exitX=1;exitY=0;exitDx=0;exitDy=0;strokeColor=default;startArrow=classic;startFill=1;" parent="1" source="61" target="64" edge="1">
                    <mxGeometry relative="1" as="geometry"/>
                </mxCell>
                <mxCell id="67" style="edgeStyle=none;html=1;entryX=0;entryY=0;entryDx=0;entryDy=0;strokeColor=default;startArrow=classic;startFill=1;" parent="1" source="13" target="61" edge="1">
                    <mxGeometry relative="1" as="geometry"/>
                </mxCell>
                <mxCell id="68" style="edgeStyle=none;html=1;exitX=1;exitY=0;exitDx=0;exitDy=0;strokeColor=default;startArrow=none;startFill=0;" parent="1" source="7" target="13" edge="1">
                    <mxGeometry relative="1" as="geometry"/>
                </mxCell>
                <mxCell id="69" style="edgeStyle=none;html=1;exitX=0.5;exitY=0;exitDx=0;exitDy=0;strokeColor=default;startArrow=classic;startFill=1;endArrow=none;endFill=0;" parent="1" source="61" target="54" edge="1">
                    <mxGeometry relative="1" as="geometry"/>
                </mxCell>
                <mxCell id="71" value="" style="group" parent="1" vertex="1" connectable="0">
                    <mxGeometry x="140" y="270" width="120" height="80" as="geometry"/>
                </mxCell>
                <mxCell id="72" value="" style="rhombus;whiteSpace=wrap;html=1;" parent="71" vertex="1">
                    <mxGeometry x="-10" y="-40" width="115" height="115" as="geometry"/>
                </mxCell>
                <mxCell id="73" value="" style="ellipse;whiteSpace=wrap;html=1;" parent="71" vertex="1">
                    <mxGeometry width="45" height="30" as="geometry"/>
                </mxCell>
                <mxCell id="74" value="Actor" style="text;html=1;strokeColor=none;fillColor=none;align=center;verticalAlign=middle;whiteSpace=wrap;rounded=0;movable=0;resizable=0;rotatable=0;deletable=0;editable=0;connectable=0;" parent="71" vertex="1">
                    <mxGeometry x="11.25" y="9.375" width="22.5" height="11.25" as="geometry"/>
                </mxCell>
                <mxCell id="90" value="Device 2" style="text;html=1;strokeColor=none;fillColor=none;align=center;verticalAlign=middle;whiteSpace=wrap;rounded=0;" parent="71" vertex="1">
                    <mxGeometry x="17.5" y="-20.629999999999995" width="60" height="30" as="geometry"/>
                </mxCell>
                <mxCell id="75" value="" style="group" parent="1" vertex="1" connectable="0">
                    <mxGeometry x="200" y="270" width="45" height="30" as="geometry"/>
                </mxCell>
                <mxCell id="76" value="" style="ellipse;whiteSpace=wrap;html=1;" parent="75" vertex="1">
                    <mxGeometry width="45" height="30" as="geometry"/>
                </mxCell>
                <mxCell id="77" value="Actor" style="text;html=1;strokeColor=none;fillColor=none;align=center;verticalAlign=middle;whiteSpace=wrap;rounded=0;movable=0;resizable=0;rotatable=0;deletable=0;editable=0;connectable=0;" parent="75" vertex="1">
                    <mxGeometry x="11.25" y="9.375" width="22.5" height="11.25" as="geometry"/>
                </mxCell>
                <mxCell id="78" style="edgeStyle=none;html=1;exitX=1;exitY=0.5;exitDx=0;exitDy=0;entryX=0;entryY=0.5;entryDx=0;entryDy=0;" parent="1" source="73" target="76" edge="1">
                    <mxGeometry relative="1" as="geometry"/>
                </mxCell>
                <mxCell id="79" value="" style="group" parent="1" vertex="1" connectable="0">
                    <mxGeometry x="170" y="160" width="120" height="80" as="geometry"/>
                </mxCell>
                <mxCell id="80" value="" style="rhombus;whiteSpace=wrap;html=1;" parent="79" vertex="1">
                    <mxGeometry x="-10" y="-40" width="115" height="115" as="geometry"/>
                </mxCell>
                <mxCell id="81" value="" style="ellipse;whiteSpace=wrap;html=1;" parent="79" vertex="1">
                    <mxGeometry width="45" height="30" as="geometry"/>
                </mxCell>
                <mxCell id="82" value="Actor" style="text;html=1;strokeColor=none;fillColor=none;align=center;verticalAlign=middle;whiteSpace=wrap;rounded=0;movable=0;resizable=0;rotatable=0;deletable=0;editable=0;connectable=0;" parent="79" vertex="1">
                    <mxGeometry x="11.25" y="9.375" width="22.5" height="11.25" as="geometry"/>
                </mxCell>
                <mxCell id="91" value="Device 1" style="text;html=1;strokeColor=none;fillColor=none;align=center;verticalAlign=middle;whiteSpace=wrap;rounded=0;" parent="79" vertex="1">
                    <mxGeometry x="17.5" y="-24" width="60" height="30" as="geometry"/>
                </mxCell>
                <mxCell id="83" value="" style="group" parent="1" vertex="1" connectable="0">
                    <mxGeometry x="230" y="160" width="45" height="30" as="geometry"/>
                </mxCell>
                <mxCell id="84" value="" style="ellipse;whiteSpace=wrap;html=1;" parent="83" vertex="1">
                    <mxGeometry width="45" height="30" as="geometry"/>
                </mxCell>
                <mxCell id="85" value="Actor" style="text;html=1;strokeColor=none;fillColor=none;align=center;verticalAlign=middle;whiteSpace=wrap;rounded=0;movable=0;resizable=0;rotatable=0;deletable=0;editable=0;connectable=0;" parent="83" vertex="1">
                    <mxGeometry x="11.25" y="9.375" width="22.5" height="11.25" as="geometry"/>
                </mxCell>
                <mxCell id="86" style="edgeStyle=none;html=1;exitX=1;exitY=0.5;exitDx=0;exitDy=0;entryX=0;entryY=0.5;entryDx=0;entryDy=0;" parent="1" source="81" target="84" edge="1">
                    <mxGeometry relative="1" as="geometry"/>
                </mxCell>
                <mxCell id="87" style="edgeStyle=none;html=1;exitX=1;exitY=0.5;exitDx=0;exitDy=0;strokeColor=default;startArrow=none;startFill=0;endArrow=classic;endFill=1;" parent="1" source="76" target="13" edge="1">
                    <mxGeometry relative="1" as="geometry"/>
                </mxCell>
                <mxCell id="88" style="edgeStyle=none;html=1;exitX=1;exitY=0.5;exitDx=0;exitDy=0;strokeColor=default;startArrow=none;startFill=0;endArrow=classic;endFill=1;" parent="1" source="84" target="13" edge="1">
                    <mxGeometry relative="1" as="geometry"/>
                </mxCell>
                <mxCell id="92" value="Cloud" style="text;html=1;strokeColor=none;fillColor=none;align=center;verticalAlign=middle;whiteSpace=wrap;rounded=0;" parent="1" vertex="1">
                    <mxGeometry x="410" y="330" width="60" height="30" as="geometry"/>
                </mxCell>
                <mxCell id="95" value="Pipeline" style="text;html=1;strokeColor=none;fillColor=none;align=center;verticalAlign=middle;whiteSpace=wrap;rounded=0;rotation=0;" parent="1" vertex="1">
                    <mxGeometry x="363" y="160" width="60" height="30" as="geometry"/>
                </mxCell>
            </root>
        </mxGraphModel>
    </diagram>
</mxfile>